<mxfile host="app.diagrams.net" agent="Mozilla/5.0 (Windows NT 10.0; Win64; x64) AppleWebKit/537.36 (KHTML, like Gecko) Chrome/130.0.0.0 YaBrowser/24.12.0.0 Safari/537.36" version="25.0.3">
  <diagram name="Page-1" id="c4acf3e9-155e-7222-9cf6-157b1a14988f">
    <mxGraphModel dx="4126" dy="922" grid="1" gridSize="10" guides="1" tooltips="1" connect="1" arrows="1" fold="1" page="1" pageScale="1" pageWidth="850" pageHeight="1100" background="none" math="0" shadow="0">
      <root>
        <mxCell id="0" />
        <mxCell id="1" parent="0" />
        <mxCell id="koeTx7zJHFDL5dOH3Puz-296" style="edgeStyle=orthogonalEdgeStyle;rounded=0;orthogonalLoop=1;jettySize=auto;html=1;entryX=0.5;entryY=0;entryDx=0;entryDy=0;endArrow=block;endFill=0;endSize=18;" parent="1" edge="1">
          <mxGeometry relative="1" as="geometry">
            <mxPoint x="-510" y="-40" as="targetPoint" />
          </mxGeometry>
        </mxCell>
        <mxCell id="koeTx7zJHFDL5dOH3Puz-297" style="edgeStyle=orthogonalEdgeStyle;rounded=0;orthogonalLoop=1;jettySize=auto;html=1;entryX=1;entryY=0.5;entryDx=0;entryDy=0;endArrow=block;endFill=0;endSize=18;" parent="1" edge="1">
          <mxGeometry relative="1" as="geometry">
            <mxPoint x="-430" y="-1" as="targetPoint" />
          </mxGeometry>
        </mxCell>
        <mxCell id="koeTx7zJHFDL5dOH3Puz-299" style="edgeStyle=orthogonalEdgeStyle;rounded=0;orthogonalLoop=1;jettySize=auto;html=1;endArrow=block;endFill=0;endSize=18;" parent="1" edge="1">
          <mxGeometry relative="1" as="geometry">
            <mxPoint x="-510" y="46.00000000000023" as="targetPoint" />
          </mxGeometry>
        </mxCell>
        <mxCell id="5YGV7-cRhL-aFgLkPf0P-13" style="edgeStyle=orthogonalEdgeStyle;rounded=0;orthogonalLoop=1;jettySize=auto;html=1;entryX=0.5;entryY=0;entryDx=0;entryDy=0;endArrow=block;endFill=0;dashed=1;endSize=16;" parent="1" source="V7ZVn_p72Z13n0NJUfGX-22" target="5YGV7-cRhL-aFgLkPf0P-7" edge="1">
          <mxGeometry relative="1" as="geometry" />
        </mxCell>
        <mxCell id="5YGV7-cRhL-aFgLkPf0P-29" style="edgeStyle=orthogonalEdgeStyle;rounded=0;orthogonalLoop=1;jettySize=auto;html=1;entryX=0;entryY=0;entryDx=0;entryDy=0;endArrow=diamondThin;endFill=0;endSize=16;exitX=1;exitY=0;exitDx=0;exitDy=0;" parent="1" source="5YGV7-cRhL-aFgLkPf0P-7" target="V7ZVn_p72Z13n0NJUfGX-92" edge="1">
          <mxGeometry relative="1" as="geometry">
            <Array as="points">
              <mxPoint x="-1060" y="1300" />
              <mxPoint x="-180" y="1300" />
              <mxPoint x="-180" y="1292" />
            </Array>
          </mxGeometry>
        </mxCell>
        <mxCell id="5YGV7-cRhL-aFgLkPf0P-31" style="edgeStyle=orthogonalEdgeStyle;rounded=0;orthogonalLoop=1;jettySize=auto;html=1;entryX=0.5;entryY=0;entryDx=0;entryDy=0;dashed=1;endArrow=block;endFill=0;endSize=14;" parent="1" source="V7ZVn_p72Z13n0NJUfGX-22" target="5YGV7-cRhL-aFgLkPf0P-20" edge="1">
          <mxGeometry relative="1" as="geometry" />
        </mxCell>
        <mxCell id="V7ZVn_p72Z13n0NJUfGX-22" value="class ClubLogic" style="swimlane;fontStyle=1;align=center;verticalAlign=top;childLayout=stackLayout;horizontal=1;startSize=26;horizontalStack=0;resizeParent=1;resizeParentMax=0;resizeLast=0;collapsible=1;marginBottom=0;whiteSpace=wrap;html=1;" parent="1" vertex="1">
          <mxGeometry x="-1590" y="880" width="440" height="370" as="geometry" />
        </mxCell>
        <mxCell id="V7ZVn_p72Z13n0NJUfGX-23" value="- FileSystem&lt;div&gt;- tablebusytime : array [int]&lt;/div&gt;&lt;div&gt;- timestart : int&lt;/div&gt;&lt;div&gt;- timeend : int&lt;/div&gt;&lt;div&gt;- file : ifstream&lt;/div&gt;&lt;div&gt;- hourcost : int&lt;/div&gt;&lt;div&gt;- clientdatabase : array [string]&lt;/div&gt;&lt;div&gt;- tabledatabase : array [string]&lt;/div&gt;&lt;div&gt;- queue : queue [string]&lt;/div&gt;&lt;div&gt;- tabletime : array [int]&lt;/div&gt;&lt;div&gt;- tablecost : array [int]&lt;/div&gt;" style="text;strokeColor=none;fillColor=none;align=left;verticalAlign=top;spacingLeft=4;spacingRight=4;overflow=hidden;rotatable=0;points=[[0,0.5],[1,0.5]];portConstraint=eastwest;whiteSpace=wrap;html=1;" parent="V7ZVn_p72Z13n0NJUfGX-22" vertex="1">
          <mxGeometry y="26" width="440" height="174" as="geometry" />
        </mxCell>
        <mxCell id="V7ZVn_p72Z13n0NJUfGX-24" value="" style="line;strokeWidth=1;fillColor=none;align=left;verticalAlign=middle;spacingTop=-1;spacingLeft=3;spacingRight=3;rotatable=0;labelPosition=right;points=[];portConstraint=eastwest;strokeColor=inherit;" parent="V7ZVn_p72Z13n0NJUfGX-22" vertex="1">
          <mxGeometry y="200" width="440" height="8" as="geometry" />
        </mxCell>
        <mxCell id="V7ZVn_p72Z13n0NJUfGX-25" value="+ initcl (filename : string)&lt;div&gt;+ timeCheck (time : int) -&amp;gt; status : int&lt;/div&gt;&lt;div&gt;+ tableEnter (TableID : int, time : int) -&amp;gt; status : int&lt;/div&gt;&lt;div&gt;+ tableLeave (TableID : int, time : int) -&amp;gt; status : int&lt;/div&gt;&lt;div&gt;+ eventRead () -&amp;gt;&amp;nbsp;&lt;span style=&quot;background-color: initial;&quot;&gt;event: Event {time, id, data}&lt;/span&gt;&lt;/div&gt;&lt;div&gt;&lt;span style=&quot;background-color: initial;&quot;&gt;+ databaseGet() -&amp;gt; array [string]&lt;/span&gt;&lt;/div&gt;&lt;div&gt;+ tabletimesGet() -&amp;gt; array [int]&lt;span style=&quot;background-color: initial;&quot;&gt;&lt;/span&gt;&lt;/div&gt;&lt;div&gt;+ tablebusytimeGet() -&amp;gt; array [int]&lt;/div&gt;&lt;div&gt;+ tabledatabaseGet() -&amp;gt; array [string]&lt;/div&gt;&lt;div&gt;+ queueGet() -&amp;gt; array [string]&lt;/div&gt;" style="text;strokeColor=none;fillColor=none;align=left;verticalAlign=top;spacingLeft=4;spacingRight=4;overflow=hidden;rotatable=0;points=[[0,0.5],[1,0.5]];portConstraint=eastwest;whiteSpace=wrap;html=1;" parent="V7ZVn_p72Z13n0NJUfGX-22" vertex="1">
          <mxGeometry y="208" width="440" height="162" as="geometry" />
        </mxCell>
        <mxCell id="5YGV7-cRhL-aFgLkPf0P-6" style="edgeStyle=orthogonalEdgeStyle;rounded=0;orthogonalLoop=1;jettySize=auto;html=1;entryX=0.5;entryY=0;entryDx=0;entryDy=0;endArrow=diamondThin;endFill=1;endSize=16;" parent="1" source="V7ZVn_p72Z13n0NJUfGX-41" target="V7ZVn_p72Z13n0NJUfGX-22" edge="1">
          <mxGeometry relative="1" as="geometry" />
        </mxCell>
        <mxCell id="V7ZVn_p72Z13n0NJUfGX-41" value="class FileSystem" style="swimlane;fontStyle=1;align=center;verticalAlign=top;childLayout=stackLayout;horizontal=1;startSize=26;horizontalStack=0;resizeParent=1;resizeParentMax=0;resizeLast=0;collapsible=1;marginBottom=0;whiteSpace=wrap;html=1;" parent="1" vertex="1">
          <mxGeometry x="-1545" y="720" width="350" height="122" as="geometry" />
        </mxCell>
        <mxCell id="V7ZVn_p72Z13n0NJUfGX-43" value="" style="line;strokeWidth=1;fillColor=none;align=left;verticalAlign=middle;spacingTop=-1;spacingLeft=3;spacingRight=3;rotatable=0;labelPosition=right;points=[];portConstraint=eastwest;strokeColor=inherit;" parent="V7ZVn_p72Z13n0NJUfGX-41" vertex="1">
          <mxGeometry y="26" width="350" height="14" as="geometry" />
        </mxCell>
        <mxCell id="V7ZVn_p72Z13n0NJUfGX-44" value="&lt;div&gt;+ numRead (file : ifstream) -&amp;gt; num : int&lt;/div&gt;&lt;div&gt;+ timestartRead (file : ifstream) -&amp;gt; timestart: int&lt;/div&gt;&lt;div&gt;+ timeendRead (file : ifstream) -&amp;gt; timeend: int&lt;/div&gt;&lt;div&gt;+ eventRead (file : ifstream) -&amp;gt; event: Event {time, id, data}&lt;/div&gt;&lt;div&gt;&lt;br&gt;&lt;/div&gt;" style="text;strokeColor=none;fillColor=none;align=left;verticalAlign=top;spacingLeft=4;spacingRight=4;overflow=hidden;rotatable=0;points=[[0,0.5],[1,0.5]];portConstraint=eastwest;whiteSpace=wrap;html=1;" parent="V7ZVn_p72Z13n0NJUfGX-41" vertex="1">
          <mxGeometry y="40" width="350" height="82" as="geometry" />
        </mxCell>
        <mxCell id="V7ZVn_p72Z13n0NJUfGX-99" style="edgeStyle=orthogonalEdgeStyle;rounded=0;orthogonalLoop=1;jettySize=auto;html=1;endArrow=none;endFill=0;startArrow=none;startFill=0;startSize=16;dashed=1;" parent="1" source="V7ZVn_p72Z13n0NJUfGX-80" edge="1">
          <mxGeometry relative="1" as="geometry">
            <mxPoint x="80" y="2010" as="targetPoint" />
          </mxGeometry>
        </mxCell>
        <mxCell id="V7ZVn_p72Z13n0NJUfGX-102" style="edgeStyle=orthogonalEdgeStyle;rounded=0;orthogonalLoop=1;jettySize=auto;html=1;endArrow=open;endFill=0;endSize=16;" parent="1" source="V7ZVn_p72Z13n0NJUfGX-80" edge="1">
          <mxGeometry relative="1" as="geometry">
            <Array as="points">
              <mxPoint x="-730" y="2235" />
              <mxPoint x="-730" y="1949" />
            </Array>
            <mxPoint x="-1150" y="1949" as="targetPoint" />
          </mxGeometry>
        </mxCell>
        <mxCell id="V7ZVn_p72Z13n0NJUfGX-80" value="class WaitCommand" style="swimlane;fontStyle=1;align=center;verticalAlign=top;childLayout=stackLayout;horizontal=1;startSize=26;horizontalStack=0;resizeParent=1;resizeParentMax=0;resizeLast=0;collapsible=1;marginBottom=0;whiteSpace=wrap;html=1;" parent="1" vertex="1">
          <mxGeometry x="-320" y="2160" width="310" height="116" as="geometry" />
        </mxCell>
        <mxCell id="V7ZVn_p72Z13n0NJUfGX-82" value="" style="line;strokeWidth=1;fillColor=none;align=left;verticalAlign=middle;spacingTop=-1;spacingLeft=3;spacingRight=3;rotatable=0;labelPosition=right;points=[];portConstraint=eastwest;strokeColor=inherit;" parent="V7ZVn_p72Z13n0NJUfGX-80" vertex="1">
          <mxGeometry y="26" width="310" height="8" as="geometry" />
        </mxCell>
        <mxCell id="V7ZVn_p72Z13n0NJUfGX-83" value="&lt;div&gt;+ init (time : int, name : string)&lt;/div&gt;&lt;div&gt;&lt;span style=&quot;background-color: initial;&quot;&gt;+ execute (Observer) -&amp;gt;&amp;nbsp;&lt;/span&gt;&lt;span style=&quot;background-color: initial;&quot;&gt;event&lt;/span&gt;&lt;/div&gt;" style="text;strokeColor=none;fillColor=none;align=left;verticalAlign=top;spacingLeft=4;spacingRight=4;overflow=hidden;rotatable=0;points=[[0,0.5],[1,0.5]];portConstraint=eastwest;whiteSpace=wrap;html=1;" parent="V7ZVn_p72Z13n0NJUfGX-80" vertex="1">
          <mxGeometry y="34" width="310" height="82" as="geometry" />
        </mxCell>
        <mxCell id="V7ZVn_p72Z13n0NJUfGX-100" style="edgeStyle=orthogonalEdgeStyle;rounded=0;orthogonalLoop=1;jettySize=auto;html=1;exitX=0;exitY=0.5;exitDx=0;exitDy=0;endArrow=open;endFill=0;endSize=16;" parent="1" source="V7ZVn_p72Z13n0NJUfGX-87" edge="1">
          <mxGeometry relative="1" as="geometry">
            <Array as="points">
              <mxPoint x="-730" y="1839" />
              <mxPoint x="-730" y="1949" />
            </Array>
            <mxPoint x="-1150" y="1949" as="targetPoint" />
          </mxGeometry>
        </mxCell>
        <mxCell id="V7ZVn_p72Z13n0NJUfGX-84" value="class EnterClubCommand" style="swimlane;fontStyle=1;align=center;verticalAlign=top;childLayout=stackLayout;horizontal=1;startSize=26;horizontalStack=0;resizeParent=1;resizeParentMax=0;resizeLast=0;collapsible=1;marginBottom=0;whiteSpace=wrap;html=1;" parent="1" vertex="1">
          <mxGeometry x="-320" y="1750" width="310" height="116" as="geometry" />
        </mxCell>
        <mxCell id="V7ZVn_p72Z13n0NJUfGX-86" value="" style="line;strokeWidth=1;fillColor=none;align=left;verticalAlign=middle;spacingTop=-1;spacingLeft=3;spacingRight=3;rotatable=0;labelPosition=right;points=[];portConstraint=eastwest;strokeColor=inherit;" parent="V7ZVn_p72Z13n0NJUfGX-84" vertex="1">
          <mxGeometry y="26" width="310" height="8" as="geometry" />
        </mxCell>
        <mxCell id="V7ZVn_p72Z13n0NJUfGX-87" value="&lt;div&gt;+ init (time : int, name : string)&lt;/div&gt;&lt;div&gt;&lt;span style=&quot;background-color: initial;&quot;&gt;+ execute (Observer) -&amp;gt; event&lt;/span&gt;&lt;/div&gt;" style="text;strokeColor=none;fillColor=none;align=left;verticalAlign=top;spacingLeft=4;spacingRight=4;overflow=hidden;rotatable=0;points=[[0,0.5],[1,0.5]];portConstraint=eastwest;whiteSpace=wrap;html=1;" parent="V7ZVn_p72Z13n0NJUfGX-84" vertex="1">
          <mxGeometry y="34" width="310" height="82" as="geometry" />
        </mxCell>
        <mxCell id="V7ZVn_p72Z13n0NJUfGX-98" style="edgeStyle=orthogonalEdgeStyle;rounded=0;orthogonalLoop=1;jettySize=auto;html=1;endArrow=none;endFill=0;startArrow=none;startFill=0;startSize=16;dashed=1;" parent="1" source="V7ZVn_p72Z13n0NJUfGX-88" edge="1">
          <mxGeometry relative="1" as="geometry">
            <mxPoint x="80" y="1790" as="targetPoint" />
          </mxGeometry>
        </mxCell>
        <mxCell id="V7ZVn_p72Z13n0NJUfGX-101" style="edgeStyle=orthogonalEdgeStyle;rounded=0;orthogonalLoop=1;jettySize=auto;html=1;endArrow=open;endFill=0;endSize=16;" parent="1" source="V7ZVn_p72Z13n0NJUfGX-88" edge="1">
          <mxGeometry relative="1" as="geometry">
            <Array as="points">
              <mxPoint x="-730" y="2015" />
              <mxPoint x="-730" y="1949" />
            </Array>
            <mxPoint x="-1150" y="1949" as="targetPoint" />
          </mxGeometry>
        </mxCell>
        <mxCell id="V7ZVn_p72Z13n0NJUfGX-88" value="class EnterTableCommand" style="swimlane;fontStyle=1;align=center;verticalAlign=top;childLayout=stackLayout;horizontal=1;startSize=26;horizontalStack=0;resizeParent=1;resizeParentMax=0;resizeLast=0;collapsible=1;marginBottom=0;whiteSpace=wrap;html=1;" parent="1" vertex="1">
          <mxGeometry x="-310" y="1950" width="310" height="116" as="geometry" />
        </mxCell>
        <mxCell id="V7ZVn_p72Z13n0NJUfGX-90" value="" style="line;strokeWidth=1;fillColor=none;align=left;verticalAlign=middle;spacingTop=-1;spacingLeft=3;spacingRight=3;rotatable=0;labelPosition=right;points=[];portConstraint=eastwest;strokeColor=inherit;" parent="V7ZVn_p72Z13n0NJUfGX-88" vertex="1">
          <mxGeometry y="26" width="310" height="8" as="geometry" />
        </mxCell>
        <mxCell id="V7ZVn_p72Z13n0NJUfGX-91" value="&lt;div&gt;+ init (time : int, name : string, TableID : int)&lt;/div&gt;&lt;div&gt;&lt;span style=&quot;background-color: initial;&quot;&gt;+ execute (Observer) -&amp;gt;&amp;nbsp;&lt;/span&gt;&lt;span style=&quot;background-color: initial;&quot;&gt;event&lt;/span&gt;&lt;/div&gt;" style="text;strokeColor=none;fillColor=none;align=left;verticalAlign=top;spacingLeft=4;spacingRight=4;overflow=hidden;rotatable=0;points=[[0,0.5],[1,0.5]];portConstraint=eastwest;whiteSpace=wrap;html=1;" parent="V7ZVn_p72Z13n0NJUfGX-88" vertex="1">
          <mxGeometry y="34" width="310" height="82" as="geometry" />
        </mxCell>
        <mxCell id="V7ZVn_p72Z13n0NJUfGX-97" style="edgeStyle=orthogonalEdgeStyle;rounded=0;orthogonalLoop=1;jettySize=auto;html=1;endArrow=none;endFill=0;endSize=16;dashed=1;startArrow=block;startFill=0;startSize=15;" parent="1" source="V7ZVn_p72Z13n0NJUfGX-92" target="V7ZVn_p72Z13n0NJUfGX-84" edge="1">
          <mxGeometry relative="1" as="geometry">
            <Array as="points">
              <mxPoint x="80" y="1795" />
            </Array>
          </mxGeometry>
        </mxCell>
        <mxCell id="IRJb3W1jK_8RHqqoB5Ti-7" style="edgeStyle=orthogonalEdgeStyle;rounded=0;orthogonalLoop=1;jettySize=auto;html=1;endArrow=diamondThin;endFill=0;endSize=18;" parent="1" source="V7ZVn_p72Z13n0NJUfGX-92" target="IRJb3W1jK_8RHqqoB5Ti-1" edge="1">
          <mxGeometry relative="1" as="geometry" />
        </mxCell>
        <mxCell id="V7ZVn_p72Z13n0NJUfGX-92" value="class Command" style="swimlane;fontStyle=1;align=center;verticalAlign=top;childLayout=stackLayout;horizontal=1;startSize=26;horizontalStack=0;resizeParent=1;resizeParentMax=0;resizeLast=0;collapsible=1;marginBottom=0;whiteSpace=wrap;html=1;" parent="1" vertex="1">
          <mxGeometry x="-120" y="1292" width="310" height="116" as="geometry" />
        </mxCell>
        <mxCell id="V7ZVn_p72Z13n0NJUfGX-94" value="" style="line;strokeWidth=1;fillColor=none;align=left;verticalAlign=middle;spacingTop=-1;spacingLeft=3;spacingRight=3;rotatable=0;labelPosition=right;points=[];portConstraint=eastwest;strokeColor=inherit;" parent="V7ZVn_p72Z13n0NJUfGX-92" vertex="1">
          <mxGeometry y="26" width="310" height="8" as="geometry" />
        </mxCell>
        <mxCell id="V7ZVn_p72Z13n0NJUfGX-95" value="+ execute(Observer) -&amp;gt; event" style="text;strokeColor=none;fillColor=none;align=left;verticalAlign=top;spacingLeft=4;spacingRight=4;overflow=hidden;rotatable=0;points=[[0,0.5],[1,0.5]];portConstraint=eastwest;whiteSpace=wrap;html=1;" parent="V7ZVn_p72Z13n0NJUfGX-92" vertex="1">
          <mxGeometry y="34" width="310" height="82" as="geometry" />
        </mxCell>
        <mxCell id="V7ZVn_p72Z13n0NJUfGX-137" style="edgeStyle=orthogonalEdgeStyle;rounded=0;orthogonalLoop=1;jettySize=auto;html=1;endArrow=none;endFill=0;" parent="1" source="V7ZVn_p72Z13n0NJUfGX-111" edge="1">
          <mxGeometry relative="1" as="geometry">
            <mxPoint x="-730" y="2219" as="targetPoint" />
          </mxGeometry>
        </mxCell>
        <mxCell id="V7ZVn_p72Z13n0NJUfGX-145" style="edgeStyle=orthogonalEdgeStyle;rounded=0;orthogonalLoop=1;jettySize=auto;html=1;endArrow=none;endFill=0;dashed=1;startArrow=none;startFill=0;startSize=16;" parent="1" source="V7ZVn_p72Z13n0NJUfGX-111" edge="1">
          <mxGeometry relative="1" as="geometry">
            <mxPoint x="80" y="2219" as="targetPoint" />
          </mxGeometry>
        </mxCell>
        <mxCell id="V7ZVn_p72Z13n0NJUfGX-111" value="class LeaveCommand" style="swimlane;fontStyle=1;align=center;verticalAlign=top;childLayout=stackLayout;horizontal=1;startSize=26;horizontalStack=0;resizeParent=1;resizeParentMax=0;resizeLast=0;collapsible=1;marginBottom=0;whiteSpace=wrap;html=1;" parent="1" vertex="1">
          <mxGeometry x="-310" y="2399" width="310" height="116" as="geometry" />
        </mxCell>
        <mxCell id="V7ZVn_p72Z13n0NJUfGX-113" value="" style="line;strokeWidth=1;fillColor=none;align=left;verticalAlign=middle;spacingTop=-1;spacingLeft=3;spacingRight=3;rotatable=0;labelPosition=right;points=[];portConstraint=eastwest;strokeColor=inherit;" parent="V7ZVn_p72Z13n0NJUfGX-111" vertex="1">
          <mxGeometry y="26" width="310" height="8" as="geometry" />
        </mxCell>
        <mxCell id="V7ZVn_p72Z13n0NJUfGX-114" value="&lt;div&gt;+ init (time : int, name : string)&lt;/div&gt;&lt;div&gt;&lt;span style=&quot;background-color: initial;&quot;&gt;+ execute (Observer) -&amp;gt;&amp;nbsp;&lt;/span&gt;&lt;span style=&quot;background-color: initial;&quot;&gt;event&lt;/span&gt;&lt;/div&gt;" style="text;strokeColor=none;fillColor=none;align=left;verticalAlign=top;spacingLeft=4;spacingRight=4;overflow=hidden;rotatable=0;points=[[0,0.5],[1,0.5]];portConstraint=eastwest;whiteSpace=wrap;html=1;" parent="V7ZVn_p72Z13n0NJUfGX-111" vertex="1">
          <mxGeometry y="34" width="310" height="82" as="geometry" />
        </mxCell>
        <mxCell id="V7ZVn_p72Z13n0NJUfGX-138" style="edgeStyle=orthogonalEdgeStyle;rounded=0;orthogonalLoop=1;jettySize=auto;html=1;endArrow=none;endFill=0;" parent="1" source="V7ZVn_p72Z13n0NJUfGX-115" edge="1">
          <mxGeometry relative="1" as="geometry">
            <mxPoint x="-730" y="2439" as="targetPoint" />
          </mxGeometry>
        </mxCell>
        <mxCell id="V7ZVn_p72Z13n0NJUfGX-146" style="edgeStyle=orthogonalEdgeStyle;rounded=0;orthogonalLoop=1;jettySize=auto;html=1;endArrow=none;endFill=0;dashed=1;startArrow=none;startFill=0;startSize=16;" parent="1" source="V7ZVn_p72Z13n0NJUfGX-115" edge="1">
          <mxGeometry relative="1" as="geometry">
            <mxPoint x="80" y="2459" as="targetPoint" />
          </mxGeometry>
        </mxCell>
        <mxCell id="V7ZVn_p72Z13n0NJUfGX-115" value="class EndWorkCommand" style="swimlane;fontStyle=1;align=center;verticalAlign=top;childLayout=stackLayout;horizontal=1;startSize=26;horizontalStack=0;resizeParent=1;resizeParentMax=0;resizeLast=0;collapsible=1;marginBottom=0;whiteSpace=wrap;html=1;" parent="1" vertex="1">
          <mxGeometry x="-330" y="2649" width="310" height="116" as="geometry" />
        </mxCell>
        <mxCell id="V7ZVn_p72Z13n0NJUfGX-117" value="" style="line;strokeWidth=1;fillColor=none;align=left;verticalAlign=middle;spacingTop=-1;spacingLeft=3;spacingRight=3;rotatable=0;labelPosition=right;points=[];portConstraint=eastwest;strokeColor=inherit;" parent="V7ZVn_p72Z13n0NJUfGX-115" vertex="1">
          <mxGeometry y="26" width="310" height="8" as="geometry" />
        </mxCell>
        <mxCell id="V7ZVn_p72Z13n0NJUfGX-118" value="&lt;div&gt;+ init (time : int, name : string)&lt;/div&gt;&lt;div&gt;&lt;span style=&quot;background-color: initial;&quot;&gt;+ execute (Observer) -&amp;gt;&amp;nbsp;&lt;/span&gt;&lt;span style=&quot;background-color: initial;&quot;&gt;event&lt;/span&gt;&lt;/div&gt;" style="text;strokeColor=none;fillColor=none;align=left;verticalAlign=top;spacingLeft=4;spacingRight=4;overflow=hidden;rotatable=0;points=[[0,0.5],[1,0.5]];portConstraint=eastwest;whiteSpace=wrap;html=1;" parent="V7ZVn_p72Z13n0NJUfGX-115" vertex="1">
          <mxGeometry y="34" width="310" height="82" as="geometry" />
        </mxCell>
        <mxCell id="V7ZVn_p72Z13n0NJUfGX-139" style="edgeStyle=orthogonalEdgeStyle;rounded=0;orthogonalLoop=1;jettySize=auto;html=1;endArrow=none;endFill=0;" parent="1" source="V7ZVn_p72Z13n0NJUfGX-119" edge="1">
          <mxGeometry relative="1" as="geometry">
            <mxPoint x="-730" y="2679" as="targetPoint" />
          </mxGeometry>
        </mxCell>
        <mxCell id="V7ZVn_p72Z13n0NJUfGX-147" style="edgeStyle=orthogonalEdgeStyle;rounded=0;orthogonalLoop=1;jettySize=auto;html=1;endArrow=none;endFill=0;dashed=1;startArrow=none;startFill=0;startSize=16;" parent="1" source="V7ZVn_p72Z13n0NJUfGX-119" edge="1">
          <mxGeometry relative="1" as="geometry">
            <mxPoint x="80" y="2679" as="targetPoint" />
          </mxGeometry>
        </mxCell>
        <mxCell id="V7ZVn_p72Z13n0NJUfGX-119" value="class EndWaitCommand" style="swimlane;fontStyle=1;align=center;verticalAlign=top;childLayout=stackLayout;horizontal=1;startSize=26;horizontalStack=0;resizeParent=1;resizeParentMax=0;resizeLast=0;collapsible=1;marginBottom=0;whiteSpace=wrap;html=1;" parent="1" vertex="1">
          <mxGeometry x="-320" y="2859" width="310" height="116" as="geometry" />
        </mxCell>
        <mxCell id="V7ZVn_p72Z13n0NJUfGX-121" value="" style="line;strokeWidth=1;fillColor=none;align=left;verticalAlign=middle;spacingTop=-1;spacingLeft=3;spacingRight=3;rotatable=0;labelPosition=right;points=[];portConstraint=eastwest;strokeColor=inherit;" parent="V7ZVn_p72Z13n0NJUfGX-119" vertex="1">
          <mxGeometry y="26" width="310" height="8" as="geometry" />
        </mxCell>
        <mxCell id="V7ZVn_p72Z13n0NJUfGX-122" value="&lt;div&gt;+ init (time : int, name : string. TableID : int)&lt;/div&gt;&lt;div&gt;&lt;span style=&quot;background-color: initial;&quot;&gt;+ execute (Observer) -&amp;gt;&amp;nbsp;&lt;/span&gt;&lt;span style=&quot;background-color: initial;&quot;&gt;event&lt;/span&gt;&lt;/div&gt;" style="text;strokeColor=none;fillColor=none;align=left;verticalAlign=top;spacingLeft=4;spacingRight=4;overflow=hidden;rotatable=0;points=[[0,0.5],[1,0.5]];portConstraint=eastwest;whiteSpace=wrap;html=1;" parent="V7ZVn_p72Z13n0NJUfGX-119" vertex="1">
          <mxGeometry y="34" width="310" height="82" as="geometry" />
        </mxCell>
        <mxCell id="V7ZVn_p72Z13n0NJUfGX-140" style="edgeStyle=orthogonalEdgeStyle;rounded=0;orthogonalLoop=1;jettySize=auto;html=1;endArrow=none;endFill=0;" parent="1" source="V7ZVn_p72Z13n0NJUfGX-123" edge="1">
          <mxGeometry relative="1" as="geometry">
            <mxPoint x="-730" y="2919" as="targetPoint" />
          </mxGeometry>
        </mxCell>
        <mxCell id="V7ZVn_p72Z13n0NJUfGX-148" style="edgeStyle=orthogonalEdgeStyle;rounded=0;orthogonalLoop=1;jettySize=auto;html=1;endArrow=none;endFill=0;dashed=1;startArrow=none;startFill=0;startSize=16;" parent="1" source="V7ZVn_p72Z13n0NJUfGX-123" edge="1">
          <mxGeometry relative="1" as="geometry">
            <mxPoint x="80" y="2919" as="targetPoint" />
          </mxGeometry>
        </mxCell>
        <mxCell id="V7ZVn_p72Z13n0NJUfGX-123" value="class ErrorCommand" style="swimlane;fontStyle=1;align=center;verticalAlign=top;childLayout=stackLayout;horizontal=1;startSize=26;horizontalStack=0;resizeParent=1;resizeParentMax=0;resizeLast=0;collapsible=1;marginBottom=0;whiteSpace=wrap;html=1;" parent="1" vertex="1">
          <mxGeometry x="-330" y="3059" width="310" height="116" as="geometry" />
        </mxCell>
        <mxCell id="V7ZVn_p72Z13n0NJUfGX-125" value="" style="line;strokeWidth=1;fillColor=none;align=left;verticalAlign=middle;spacingTop=-1;spacingLeft=3;spacingRight=3;rotatable=0;labelPosition=right;points=[];portConstraint=eastwest;strokeColor=inherit;" parent="V7ZVn_p72Z13n0NJUfGX-123" vertex="1">
          <mxGeometry y="26" width="310" height="8" as="geometry" />
        </mxCell>
        <mxCell id="V7ZVn_p72Z13n0NJUfGX-126" value="&lt;div&gt;+ init (time : int, error : string)&lt;/div&gt;&lt;div&gt;&lt;span style=&quot;background-color: initial;&quot;&gt;+ execute (Observer) -&amp;gt;&amp;nbsp;&lt;/span&gt;&lt;span style=&quot;background-color: initial;&quot;&gt;event&lt;/span&gt;&lt;/div&gt;" style="text;strokeColor=none;fillColor=none;align=left;verticalAlign=top;spacingLeft=4;spacingRight=4;overflow=hidden;rotatable=0;points=[[0,0.5],[1,0.5]];portConstraint=eastwest;whiteSpace=wrap;html=1;" parent="V7ZVn_p72Z13n0NJUfGX-123" vertex="1">
          <mxGeometry y="34" width="310" height="82" as="geometry" />
        </mxCell>
        <mxCell id="5YGV7-cRhL-aFgLkPf0P-15" style="edgeStyle=orthogonalEdgeStyle;rounded=0;orthogonalLoop=1;jettySize=auto;html=1;entryX=0.75;entryY=0;entryDx=0;entryDy=0;endArrow=diamondThin;endFill=0;endSize=16;" parent="1" source="IRJb3W1jK_8RHqqoB5Ti-1" target="5YGV7-cRhL-aFgLkPf0P-2" edge="1">
          <mxGeometry relative="1" as="geometry">
            <Array as="points">
              <mxPoint x="-560" y="1730" />
              <mxPoint x="-1260" y="1730" />
            </Array>
          </mxGeometry>
        </mxCell>
        <mxCell id="IRJb3W1jK_8RHqqoB5Ti-1" value="class State" style="swimlane;fontStyle=1;align=center;verticalAlign=top;childLayout=stackLayout;horizontal=1;startSize=26;horizontalStack=0;resizeParent=1;resizeParentMax=0;resizeLast=0;collapsible=1;marginBottom=0;whiteSpace=wrap;html=1;" parent="1" vertex="1">
          <mxGeometry x="-780" y="1360" width="440" height="240" as="geometry" />
        </mxCell>
        <mxCell id="IRJb3W1jK_8RHqqoB5Ti-2" value="- Observer" style="text;strokeColor=none;fillColor=none;align=left;verticalAlign=top;spacingLeft=4;spacingRight=4;overflow=hidden;rotatable=0;points=[[0,0.5],[1,0.5]];portConstraint=eastwest;whiteSpace=wrap;html=1;" parent="IRJb3W1jK_8RHqqoB5Ti-1" vertex="1">
          <mxGeometry y="26" width="440" height="74" as="geometry" />
        </mxCell>
        <mxCell id="IRJb3W1jK_8RHqqoB5Ti-3" value="" style="line;strokeWidth=1;fillColor=none;align=left;verticalAlign=middle;spacingTop=-1;spacingLeft=3;spacingRight=3;rotatable=0;labelPosition=right;points=[];portConstraint=eastwest;strokeColor=inherit;" parent="IRJb3W1jK_8RHqqoB5Ti-1" vertex="1">
          <mxGeometry y="100" width="440" height="8" as="geometry" />
        </mxCell>
        <mxCell id="IRJb3W1jK_8RHqqoB5Ti-4" value="&lt;div&gt;&lt;span style=&quot;background-color: initial;&quot;&gt;+ execute_command(Command) -&amp;gt; event&lt;/span&gt;&lt;/div&gt;" style="text;strokeColor=none;fillColor=none;align=left;verticalAlign=top;spacingLeft=4;spacingRight=4;overflow=hidden;rotatable=0;points=[[0,0.5],[1,0.5]];portConstraint=eastwest;whiteSpace=wrap;html=1;" parent="IRJb3W1jK_8RHqqoB5Ti-1" vertex="1">
          <mxGeometry y="108" width="440" height="132" as="geometry" />
        </mxCell>
        <mxCell id="5YGV7-cRhL-aFgLkPf0P-2" value="class ControllerFabric" style="swimlane;fontStyle=1;align=center;verticalAlign=top;childLayout=stackLayout;horizontal=1;startSize=26;horizontalStack=0;resizeParent=1;resizeParentMax=0;resizeLast=0;collapsible=1;marginBottom=0;whiteSpace=wrap;html=1;" parent="1" vertex="1">
          <mxGeometry x="-1590" y="1888" width="440" height="240" as="geometry" />
        </mxCell>
        <mxCell id="5YGV7-cRhL-aFgLkPf0P-3" value="- State&lt;div&gt;- ObserverFileSystem&lt;/div&gt;" style="text;strokeColor=none;fillColor=none;align=left;verticalAlign=top;spacingLeft=4;spacingRight=4;overflow=hidden;rotatable=0;points=[[0,0.5],[1,0.5]];portConstraint=eastwest;whiteSpace=wrap;html=1;" parent="5YGV7-cRhL-aFgLkPf0P-2" vertex="1">
          <mxGeometry y="26" width="440" height="74" as="geometry" />
        </mxCell>
        <mxCell id="5YGV7-cRhL-aFgLkPf0P-4" value="" style="line;strokeWidth=1;fillColor=none;align=left;verticalAlign=middle;spacingTop=-1;spacingLeft=3;spacingRight=3;rotatable=0;labelPosition=right;points=[];portConstraint=eastwest;strokeColor=inherit;" parent="5YGV7-cRhL-aFgLkPf0P-2" vertex="1">
          <mxGeometry y="100" width="440" height="8" as="geometry" />
        </mxCell>
        <mxCell id="5YGV7-cRhL-aFgLkPf0P-5" value="+ ClubLogicInit (filename : string)&lt;div&gt;+ commandCreate (&lt;span style=&quot;background-color: initial;&quot;&gt;Event {time, id, data}) -&amp;gt; Command&lt;/span&gt;&lt;/div&gt;&lt;div&gt;&lt;span style=&quot;background-color: initial;&quot;&gt;+ commandExecute () -&amp;gt;&amp;nbsp;&lt;/span&gt;&lt;span style=&quot;background-color: initial;&quot;&gt;event&lt;/span&gt;&lt;/div&gt;&lt;div&gt;&lt;span style=&quot;background-color: initial;&quot;&gt;+ eventsRead ()&lt;/span&gt;&lt;/div&gt;" style="text;strokeColor=none;fillColor=none;align=left;verticalAlign=top;spacingLeft=4;spacingRight=4;overflow=hidden;rotatable=0;points=[[0,0.5],[1,0.5]];portConstraint=eastwest;whiteSpace=wrap;html=1;" parent="5YGV7-cRhL-aFgLkPf0P-2" vertex="1">
          <mxGeometry y="108" width="440" height="132" as="geometry" />
        </mxCell>
        <mxCell id="5YGV7-cRhL-aFgLkPf0P-30" style="edgeStyle=orthogonalEdgeStyle;rounded=0;orthogonalLoop=1;jettySize=auto;html=1;entryX=0;entryY=0.5;entryDx=0;entryDy=0;endArrow=diamondThin;endFill=0;endSize=16;" parent="1" source="5YGV7-cRhL-aFgLkPf0P-7" target="IRJb3W1jK_8RHqqoB5Ti-2" edge="1">
          <mxGeometry relative="1" as="geometry" />
        </mxCell>
        <mxCell id="5YGV7-cRhL-aFgLkPf0P-7" value="class Observer" style="swimlane;fontStyle=1;align=center;verticalAlign=top;childLayout=stackLayout;horizontal=1;startSize=26;horizontalStack=0;resizeParent=1;resizeParentMax=0;resizeLast=0;collapsible=1;marginBottom=0;whiteSpace=wrap;html=1;" parent="1" vertex="1">
          <mxGeometry x="-1370" y="1338" width="310" height="170" as="geometry" />
        </mxCell>
        <mxCell id="5YGV7-cRhL-aFgLkPf0P-9" value="" style="line;strokeWidth=1;fillColor=none;align=left;verticalAlign=middle;spacingTop=-1;spacingLeft=3;spacingRight=3;rotatable=0;labelPosition=right;points=[];portConstraint=eastwest;strokeColor=inherit;" parent="5YGV7-cRhL-aFgLkPf0P-7" vertex="1">
          <mxGeometry y="26" width="310" height="8" as="geometry" />
        </mxCell>
        <mxCell id="5YGV7-cRhL-aFgLkPf0P-10" value="&lt;div&gt;+ timeCheck (time : int) -&amp;gt; status : int&lt;/div&gt;&lt;div&gt;+ tableEnter (TableID : int, time : int) -&amp;gt; status : int&lt;/div&gt;&lt;div&gt;&lt;div&gt;&lt;span style=&quot;background-color: initial;&quot;&gt;+ databaseGet() -&amp;gt; array [string]&lt;/span&gt;&lt;/div&gt;&lt;div&gt;+ tabletimesGet() -&amp;gt; array [int]&lt;span style=&quot;background-color: initial;&quot;&gt;&lt;/span&gt;&lt;/div&gt;&lt;div&gt;+ tablebusytimeGet() -&amp;gt; array [int]&lt;/div&gt;&lt;div&gt;+ tabledatabaseGet() -&amp;gt; array [string]&lt;/div&gt;&lt;div&gt;+ queueGet() -&amp;gt; array [string]&lt;/div&gt;&lt;/div&gt;&lt;div&gt;+ tableLeave (TableID : int, time : int) -&amp;gt; status : int&lt;/div&gt;" style="text;strokeColor=none;fillColor=none;align=left;verticalAlign=top;spacingLeft=4;spacingRight=4;overflow=hidden;rotatable=0;points=[[0,0.5],[1,0.5]];portConstraint=eastwest;whiteSpace=wrap;html=1;" parent="5YGV7-cRhL-aFgLkPf0P-7" vertex="1">
          <mxGeometry y="34" width="310" height="136" as="geometry" />
        </mxCell>
        <mxCell id="5YGV7-cRhL-aFgLkPf0P-24" style="edgeStyle=orthogonalEdgeStyle;rounded=0;orthogonalLoop=1;jettySize=auto;html=1;entryX=0.5;entryY=0;entryDx=0;entryDy=0;endArrow=diamondThin;endFill=0;endSize=16;" parent="1" source="5YGV7-cRhL-aFgLkPf0P-20" target="5YGV7-cRhL-aFgLkPf0P-2" edge="1">
          <mxGeometry relative="1" as="geometry" />
        </mxCell>
        <mxCell id="5YGV7-cRhL-aFgLkPf0P-20" value="class ObserverFileSystem" style="swimlane;fontStyle=1;align=center;verticalAlign=top;childLayout=stackLayout;horizontal=1;startSize=26;horizontalStack=0;resizeParent=1;resizeParentMax=0;resizeLast=0;collapsible=1;marginBottom=0;whiteSpace=wrap;html=1;" parent="1" vertex="1">
          <mxGeometry x="-1720" y="1340" width="310" height="116" as="geometry" />
        </mxCell>
        <mxCell id="5YGV7-cRhL-aFgLkPf0P-21" value="" style="line;strokeWidth=1;fillColor=none;align=left;verticalAlign=middle;spacingTop=-1;spacingLeft=3;spacingRight=3;rotatable=0;labelPosition=right;points=[];portConstraint=eastwest;strokeColor=inherit;" parent="5YGV7-cRhL-aFgLkPf0P-20" vertex="1">
          <mxGeometry y="26" width="310" height="8" as="geometry" />
        </mxCell>
        <mxCell id="5YGV7-cRhL-aFgLkPf0P-22" value="&lt;div&gt;+ initcl (filename : string)&lt;/div&gt;&lt;div&gt;+ eventRead () -&amp;gt;&amp;nbsp;&lt;span style=&quot;background-color: initial;&quot;&gt;event: Event {time, id, data}&lt;/span&gt;&lt;span style=&quot;background-color: initial;&quot;&gt;&lt;/span&gt;&lt;/div&gt;" style="text;strokeColor=none;fillColor=none;align=left;verticalAlign=top;spacingLeft=4;spacingRight=4;overflow=hidden;rotatable=0;points=[[0,0.5],[1,0.5]];portConstraint=eastwest;whiteSpace=wrap;html=1;" parent="5YGV7-cRhL-aFgLkPf0P-20" vertex="1">
          <mxGeometry y="34" width="310" height="82" as="geometry" />
        </mxCell>
      </root>
    </mxGraphModel>
  </diagram>
</mxfile>
